<svg width="328" height="36" viewBox="0 0 328 36" fill="none" xmlns="http://www.w3.org/2000/svg">
<rect width="328" height="36" rx="18" fill="#5641E6"/>
<path d="M135 11V25L146 18L135 11Z" fill="#FBFAFF"/>
<path d="M161.424 14.2C162.208 14.2 162.866 14.3587 163.398 14.676C163.93 14.9933 164.322 15.4087 164.574 15.922C164.826 16.4353 164.952 16.986 164.952 17.574C164.952 18.162 164.826 18.708 164.574 19.212C164.331 19.7067 163.944 20.108 163.412 20.416C162.88 20.724 162.217 20.878 161.424 20.878H159.702V24H157.798V14.2H161.424ZM161.13 19.282C161.681 19.282 162.143 19.1513 162.516 18.89C162.889 18.6287 163.076 18.19 163.076 17.574C163.076 16.958 162.889 16.5287 162.516 16.286C162.152 16.034 161.69 15.908 161.13 15.908H159.702V19.282H161.13ZM173.617 22.306V24H167.429L167.415 14.2H169.375L169.361 22.306H173.617ZM181.758 21.592H178.398L177.614 24H175.654L179.182 14.2H181.002L184.516 24H182.556L181.758 21.592ZM181.268 20.094L180.106 16.608H180.022L178.888 20.094H181.268ZM188.574 24V20.598L185.354 14.2H187.384L189.498 18.624H189.582L191.668 14.2H193.712L190.492 20.598V24H188.574Z" fill="white"/>
</svg>
